<?xml version="1.0" encoding="UTF-8"?>
<svg id="Layer_1" data-name="Layer 1" xmlns="http://www.w3.org/2000/svg" xmlns:xlink="http://www.w3.org/1999/xlink" viewBox="0 0 137.52 65.74">
  <defs>
    <style>
      .cls-1 {
        clip-path: url(#clippath-20);
      }

      .cls-2 {
        clip-path: url(#clippath-11);
      }

      .cls-3 {
        clip-path: url(#clippath-16);
      }

      .cls-4, .cls-5 {
        fill: #26728e;
      }

      .cls-6 {
        fill: #383938;
      }

      .cls-7, .cls-8 {
        fill: #2a3387;
      }

      .cls-9 {
        fill: #9a9b9a;
      }

      .cls-10, .cls-11 {
        fill: #5c5c5c;
      }

      .cls-12 {
        fill: #fff;
      }

      .cls-12, .cls-11, .cls-5 {
        opacity: .3;
      }

      .cls-13 {
        clip-path: url(#clippath-2);
      }

      .cls-14 {
        clip-path: url(#clippath-13);
      }

      .cls-15 {
        fill: #3e96be;
      }

      .cls-16 {
        opacity: .2;
      }

      .cls-17 {
        clip-path: url(#clippath-15);
      }

      .cls-8, .cls-18 {
        opacity: .02;
      }

      .cls-19 {
        clip-path: url(#clippath-6);
      }

      .cls-20 {
        fill: #a4a6a5;
      }

      .cls-21 {
        clip-path: url(#clippath-7);
      }

      .cls-22 {
        clip-path: url(#clippath-21);
      }

      .cls-23 {
        clip-path: url(#clippath-1);
      }

      .cls-24 {
        clip-path: url(#clippath-4);
      }

      .cls-25 {
        fill: #b5b6b6;
      }

      .cls-26 {
        clip-path: url(#clippath-12);
      }

      .cls-27 {
        fill: #d6eef1;
      }

      .cls-28, .cls-18 {
        fill: #70c7e7;
      }

      .cls-29 {
        stroke: #9b9b9b;
        stroke-width: 3.28px;
      }

      .cls-29, .cls-30 {
        fill: none;
        stroke-linecap: round;
        stroke-linejoin: round;
      }

      .cls-31 {
        fill: #171717;
      }

      .cls-32 {
        clip-path: url(#clippath-9);
      }

      .cls-33 {
        clip-path: url(#clippath);
      }

      .cls-34 {
        fill: #737273;
      }

      .cls-35 {
        clip-path: url(#clippath-19);
      }

      .cls-30 {
        stroke: #ebaa25;
        stroke-width: 3.14px;
      }

      .cls-36 {
        clip-path: url(#clippath-3);
      }

      .cls-37 {
        fill: #6cc7e9;
      }

      .cls-38 {
        clip-path: url(#clippath-8);
      }

      .cls-39 {
        clip-path: url(#clippath-18);
      }

      .cls-40 {
        clip-path: url(#clippath-14);
      }

      .cls-41 {
        clip-path: url(#clippath-5);
      }

      .cls-42 {
        clip-path: url(#clippath-10);
      }
    </style>
    <clipPath id="clippath">
      <path class="cls-28" d="m23.45.49h41.93c4.33,0,7.85,3.52,7.85,7.85v41.87H15.6V8.34c0-4.33,3.52-7.85,7.85-7.85Z"/>
    </clipPath>
    <clipPath id="clippath-1">
      <path class="cls-37" d="m71.63,13.72h20.21c1.58,0,3.07.69,4.09,1.9l14.47,17.1c.82.97,1.28,2.19,1.29,3.45l.2,13.37c.05,3.02-2.37,5.51-5.39,5.56l-35.19.55.32-41.92Z"/>
    </clipPath>
    <clipPath id="clippath-2">
      <path class="cls-4" d="m71.32,55.64H15.05c-2,0-3.63-1.62-3.63-3.63h0c0-2,1.62-3.63,3.63-3.63h56.27v7.25Z"/>
    </clipPath>
    <clipPath id="clippath-3">
      <path class="cls-20" d="m38.03,49.02c-1.76-4.11-6.52-6.01-10.63-4.25-4.11,1.76-6.01,6.52-4.25,10.63,1.76,4.11,6.52,6.01,10.63,4.25,4.11-1.76,6.01-6.52,4.25-10.63Zm-5.25,8.29c-2.81,1.21-6.07-.1-7.28-2.91-1.21-2.81.1-6.07,2.91-7.28s6.07.1,7.28,2.91c1.21,2.81-.1,6.07-2.91,7.28Z"/>
    </clipPath>
    <clipPath id="clippath-4">
      <path class="cls-10" d="m39.95,48.2c-2.22-5.17-8.21-7.56-13.38-5.35-5.17,2.22-7.56,8.21-5.35,13.38,2.22,5.17,8.21,7.56,13.38,5.35s7.56-8.21,5.35-13.38Zm-6.57,10.58c-3.57,1.53-7.7-.12-9.23-3.69-1.53-3.57.12-7.7,3.69-9.23,3.57-1.53,7.7.12,9.23,3.69,1.53,3.57-.12,7.7-3.69,9.23Z"/>
    </clipPath>
    <clipPath id="clippath-5">
      <path class="cls-34" d="m31.36,50.99c0,.3-.24.54-.54.54s-.54-.24-.54-.54.24-.54.54-.54.54.24.54.54Z"/>
    </clipPath>
    <clipPath id="clippath-6">
      <path class="cls-34" d="m31.36,53.56c0,.3-.24.54-.54.54s-.54-.24-.54-.54.24-.54.54-.54.54.24.54.54Z"/>
    </clipPath>
    <clipPath id="clippath-7">
      <path class="cls-34" d="m31.95,52.85c-.3,0-.54-.24-.54-.54s.24-.54.54-.54.54.24.54.54-.24.54-.54.54Z"/>
    </clipPath>
    <clipPath id="clippath-8">
      <path class="cls-34" d="m29.63,52.85c-.3,0-.54-.24-.54-.54s.24-.54.54-.54.54.24.54.54-.24.54-.54.54Z"/>
    </clipPath>
    <clipPath id="clippath-9">
      <path class="cls-20" d="m96.98,49.02c-1.76-4.11-6.52-6.01-10.63-4.25-4.11,1.76-6.01,6.52-4.25,10.63,1.76,4.11,6.52,6.01,10.63,4.25,4.11-1.76,6.01-6.52,4.25-10.63Zm-5.25,8.29c-2.81,1.21-6.07-.1-7.28-2.91-1.21-2.81.1-6.07,2.91-7.28s6.07.1,7.28,2.91c1.21,2.81-.1,6.07-2.91,7.28Z"/>
    </clipPath>
    <clipPath id="clippath-10">
      <path class="cls-10" d="m98.9,48.2c-2.22-5.17-8.21-7.56-13.38-5.35-5.17,2.22-7.56,8.21-5.35,13.38,2.22,5.17,8.21,7.56,13.38,5.35s7.56-8.21,5.35-13.38Zm-6.57,10.58c-3.57,1.53-7.7-.12-9.23-3.69-1.53-3.57.12-7.7,3.69-9.23,3.57-1.53,7.7.12,9.23,3.69,1.53,3.57-.12,7.7-3.69,9.23Z"/>
    </clipPath>
    <clipPath id="clippath-11">
      <path class="cls-34" d="m90.3,50.99c0,.3-.24.54-.54.54s-.54-.24-.54-.54.24-.54.54-.54.54.24.54.54Z"/>
    </clipPath>
    <clipPath id="clippath-12">
      <path class="cls-34" d="m90.3,53.56c0,.3-.24.54-.54.54s-.54-.24-.54-.54.24-.54.54-.54.54.24.54.54Z"/>
    </clipPath>
    <clipPath id="clippath-13">
      <path class="cls-34" d="m90.89,52.85c-.3,0-.54-.24-.54-.54s.24-.54.54-.54.54.24.54.54-.24.54-.54.54Z"/>
    </clipPath>
    <clipPath id="clippath-14">
      <path class="cls-34" d="m88.57,52.85c-.3,0-.54-.24-.54-.54s.24-.54.54-.54.54.24.54.54-.24.54-.54.54Z"/>
    </clipPath>
    <clipPath id="clippath-15">
      <path class="cls-27" d="m75.9,34h30.72l-13.87-16.39-16.87.18c-1.25.01-2.25,1.03-2.25,2.27v11.66c0,1.26,1.02,2.27,2.27,2.27Z"/>
    </clipPath>
    <clipPath id="clippath-16">
      <path class="cls-4" d="m100.63,55.32l10.97-.14c1.74,0,3.17-1.43,3.17-3.17h0c0-1.74-1.43-3.17-3.17-3.17l-10.38.09s.83,5.08-.59,6.38Z"/>
    </clipPath>
    <clipPath id="clippath-18">
      <path class="cls-7" d="m65.81,34.48c0,.22-.18.39-.39.39s-.39-.18-.39-.39.18-.39.39-.39.39.18.39.39Z"/>
    </clipPath>
    <clipPath id="clippath-19">
      <circle class="cls-7" cx="65.33" cy="7.69" r=".39"/>
    </clipPath>
    <clipPath id="clippath-20">
      <circle class="cls-7" cx="22.15" cy="34.48" r=".39"/>
    </clipPath>
    <clipPath id="clippath-21">
      <circle class="cls-7" cx="22.07" cy="7.69" r=".39"/>
    </clipPath>
  </defs>
  <g>
    <line class="cls-29" x1="1.64" y1="33.25" x2="31.35" y2="33.25"/>
    <line class="cls-29" x1="5.47" y1="39.22" x2="31.35" y2="39.22"/>
    <line class="cls-29" x1="11.62" y1="45.19" x2="31.35" y2="45.19"/>
  </g>
  <g>
    <path class="cls-28" d="m23.45.49h41.93c4.33,0,7.85,3.52,7.85,7.85v41.87H15.6V8.34c0-4.33,3.52-7.85,7.85-7.85Z"/>
    <g class="cls-33">
      <path class="cls-18" d="m15.44,0s13.29,50.75,49.49,53.04l-58.93.33L15.44,0Z"/>
      <path class="cls-28" d="m16.09,52.21h0c-1.25,0-2.28-1.04-2.28-2.32v-10.28c0-1.28,1.03-2.32,2.28-2.32h0c1.25,0,2.28,1.04,2.28,2.32v10.28c0,1.28-1.03,2.32-2.28,2.32Z"/>
      <ellipse class="cls-28" cx="30.74" cy="53.48" rx="12.05" ry="12.26"/>
    </g>
  </g>
  <g>
    <path class="cls-37" d="m71.63,13.72h20.21c1.58,0,3.07.69,4.09,1.9l14.47,17.1c.82.97,1.28,2.19,1.29,3.45l.2,13.37c.05,3.02-2.37,5.51-5.39,5.56l-35.19.55.32-41.92Z"/>
    <g class="cls-23">
      <path class="cls-37" d="m115.87,49.76h-8.2c-1.16,0-2.1-.95-2.1-2.1h0c0-1.16.95-2.1,2.1-2.1h8.2c1.16,0,2.1.95,2.1,2.1h0c0,1.16-.95,2.1-2.1,2.1Z"/>
      <circle class="cls-37" cx="89.6" cy="51.65" r="11.66"/>
    </g>
  </g>
  <g>
    <path class="cls-4" d="m71.32,55.64H15.05c-2,0-3.63-1.62-3.63-3.63h0c0-2,1.62-3.63,3.63-3.63h56.27v7.25Z"/>
    <g class="cls-13">
      <rect class="cls-4" x="11.11" y="54.06" width="59.89" height="2.52"/>
      <circle class="cls-6" cx="30.66" cy="51.65" r="11.66"/>
    </g>
  </g>
  <g>
    <path class="cls-25" d="m36.61,50.88l-.74-1.74-2.44,1.03c-.66.28-1.39-.25-1.32-.97l.26-2.63-1.88-.18-.2,2.06c-.08.78-1,1.14-1.58.61l-1.54-1.39-1.27,1.4,2.12,1.91c.52.47.37,1.31-.27,1.58l-2.63,1.11.74,1.74,2.44-1.03c.66-.28,1.39.25,1.32.97l-.26,2.63,1.88.18.2-2.06c.08-.78,1-1.14,1.58-.61l1.54,1.39,1.27-1.4-2.12-1.91c-.52-.47-.37-1.31.27-1.58l2.63-1.11Z"/>
    <g>
      <path class="cls-20" d="m38.03,49.02c-1.76-4.11-6.52-6.01-10.63-4.25-4.11,1.76-6.01,6.52-4.25,10.63,1.76,4.11,6.52,6.01,10.63,4.25,4.11-1.76,6.01-6.52,4.25-10.63Zm-5.25,8.29c-2.81,1.21-6.07-.1-7.28-2.91-1.21-2.81.1-6.07,2.91-7.28s6.07.1,7.28,2.91c1.21,2.81-.1,6.07-2.91,7.28Z"/>
      <g class="cls-36">
        <path class="cls-9" d="m37.55,49.55c-.54-1.27-1.41-2.3-2.46-3.04.69.65,1.26,1.46,1.66,2.39,1.57,3.65-.12,7.88-3.78,9.45-2.38,1.02-5.01.66-6.99-.74,2.02,1.91,5.06,2.56,7.78,1.39,3.65-1.57,5.34-5.8,3.78-9.45Z"/>
      </g>
    </g>
    <g>
      <path class="cls-10" d="m39.95,48.2c-2.22-5.17-8.21-7.56-13.38-5.35-5.17,2.22-7.56,8.21-5.35,13.38,2.22,5.17,8.21,7.56,13.38,5.35s7.56-8.21,5.35-13.38Zm-6.57,10.58c-3.57,1.53-7.7-.12-9.23-3.69-1.53-3.57.12-7.7,3.69-9.23,3.57-1.53,7.7.12,9.23,3.69,1.53,3.57-.12,7.7-3.69,9.23Z"/>
      <g class="cls-24">
        <g class="cls-16">
          <path class="cls-31" d="m40.32,48.45c-.63-1.48-1.58-2.73-2.72-3.71.66.77,1.22,1.65,1.64,2.63,2.22,5.17-.18,11.16-5.35,13.38-3.69,1.58-7.8.81-10.66-1.64,2.82,3.28,7.55,4.51,11.74,2.72,5.17-2.22,7.56-8.21,5.35-13.38Z"/>
        </g>
      </g>
    </g>
    <g>
      <path class="cls-34" d="m31.36,50.99c0,.3-.24.54-.54.54s-.54-.24-.54-.54.24-.54.54-.54.54.24.54.54Z"/>
      <g class="cls-41">
        <path class="cls-11" d="m31.21,50.54c.04.08.06.17.06.26,0,.34-.27.61-.61.61-.18,0-.34-.08-.46-.21.1.21.31.35.55.35.34,0,.61-.27.61-.61,0-.16-.06-.3-.16-.41Z"/>
      </g>
    </g>
    <g>
      <path class="cls-34" d="m31.36,53.56c0,.3-.24.54-.54.54s-.54-.24-.54-.54.24-.54.54-.54.54.24.54.54Z"/>
      <g class="cls-19">
        <path class="cls-11" d="m31.21,53.11c.04.08.06.17.06.26,0,.34-.27.61-.61.61-.18,0-.34-.08-.46-.21.1.21.31.35.55.35.34,0,.61-.27.61-.61,0-.16-.06-.3-.16-.41Z"/>
      </g>
    </g>
    <g>
      <path class="cls-34" d="m31.95,52.85c-.3,0-.54-.24-.54-.54s.24-.54.54-.54.54.24.54.54-.24.54-.54.54Z"/>
      <g class="cls-21">
        <path class="cls-11" d="m32.4,52.7c-.08.04-.17.06-.26.06-.34,0-.61-.27-.61-.61,0-.18.08-.34.21-.46-.21.1-.35.31-.35.55,0,.34.27.61.61.61.16,0,.3-.06.41-.16Z"/>
      </g>
    </g>
    <g>
      <path class="cls-34" d="m29.63,52.85c-.3,0-.54-.24-.54-.54s.24-.54.54-.54.54.24.54.54-.24.54-.54.54Z"/>
      <g class="cls-38">
        <path class="cls-11" d="m30.08,52.7c-.08.04-.17.06-.26.06-.34,0-.61-.27-.61-.61,0-.18.08-.34.21-.46-.21.1-.35.31-.35.55,0,.34.27.61.61.61.16,0,.3-.06.41-.16Z"/>
      </g>
    </g>
  </g>
  <g>
    <path class="cls-25" d="m95.55,50.88l-.74-1.74-2.44,1.03c-.66.28-1.39-.25-1.32-.97l.26-2.63-1.88-.18-.2,2.06c-.08.78-1,1.14-1.58.61l-1.54-1.39-1.27,1.4,2.12,1.91c.52.47.37,1.31-.27,1.58l-2.63,1.11.74,1.74,2.44-1.03c.66-.28,1.39.25,1.32.97l-.26,2.63,1.88.18.2-2.06c.08-.78,1-1.14,1.58-.61l1.54,1.39,1.27-1.4-2.12-1.91c-.52-.47-.37-1.31.27-1.58l2.63-1.11Z"/>
    <g>
      <path class="cls-20" d="m96.98,49.02c-1.76-4.11-6.52-6.01-10.63-4.25-4.11,1.76-6.01,6.52-4.25,10.63,1.76,4.11,6.52,6.01,10.63,4.25,4.11-1.76,6.01-6.52,4.25-10.63Zm-5.25,8.29c-2.81,1.21-6.07-.1-7.28-2.91-1.21-2.81.1-6.07,2.91-7.28s6.07.1,7.28,2.91c1.21,2.81-.1,6.07-2.91,7.28Z"/>
      <g class="cls-32">
        <path class="cls-9" d="m96.5,49.55c-.54-1.27-1.41-2.3-2.46-3.04.69.65,1.26,1.46,1.66,2.39,1.57,3.65-.12,7.88-3.78,9.45-2.38,1.02-5.01.66-6.99-.74,2.02,1.91,5.06,2.56,7.78,1.39,3.65-1.57,5.34-5.8,3.78-9.45Z"/>
      </g>
    </g>
    <g>
      <path class="cls-10" d="m98.9,48.2c-2.22-5.17-8.21-7.56-13.38-5.35-5.17,2.22-7.56,8.21-5.35,13.38,2.22,5.17,8.21,7.56,13.38,5.35s7.56-8.21,5.35-13.38Zm-6.57,10.58c-3.57,1.53-7.7-.12-9.23-3.69-1.53-3.57.12-7.7,3.69-9.23,3.57-1.53,7.7.12,9.23,3.69,1.53,3.57-.12,7.7-3.69,9.23Z"/>
      <g class="cls-42">
        <g class="cls-16">
          <path class="cls-31" d="m99.27,48.45c-.63-1.48-1.58-2.73-2.72-3.71.66.77,1.22,1.65,1.64,2.63,2.22,5.17-.18,11.16-5.35,13.38-3.69,1.58-7.8.81-10.66-1.64,2.82,3.28,7.55,4.51,11.74,2.72,5.17-2.22,7.56-8.21,5.35-13.38Z"/>
        </g>
      </g>
    </g>
    <g>
      <path class="cls-34" d="m90.3,50.99c0,.3-.24.54-.54.54s-.54-.24-.54-.54.24-.54.54-.54.54.24.54.54Z"/>
      <g class="cls-2">
        <path class="cls-11" d="m90.15,50.54c.04.08.06.17.06.26,0,.34-.27.61-.61.61-.18,0-.34-.08-.46-.21.1.21.31.35.55.35.34,0,.61-.27.61-.61,0-.16-.06-.3-.16-.41Z"/>
      </g>
    </g>
    <g>
      <path class="cls-34" d="m90.3,53.56c0,.3-.24.54-.54.54s-.54-.24-.54-.54.24-.54.54-.54.54.24.54.54Z"/>
      <g class="cls-26">
        <path class="cls-11" d="m90.15,53.11c.04.08.06.17.06.26,0,.34-.27.61-.61.61-.18,0-.34-.08-.46-.21.1.21.31.35.55.35.34,0,.61-.27.61-.61,0-.16-.06-.3-.16-.41Z"/>
      </g>
    </g>
    <g>
      <path class="cls-34" d="m90.89,52.85c-.3,0-.54-.24-.54-.54s.24-.54.54-.54.54.24.54.54-.24.54-.54.54Z"/>
      <g class="cls-14">
        <path class="cls-11" d="m91.34,52.7c-.08.04-.17.06-.26.06-.34,0-.61-.27-.61-.61,0-.18.08-.34.21-.46-.21.1-.35.31-.35.55,0,.34.27.61.61.61.16,0,.3-.06.41-.16Z"/>
      </g>
    </g>
    <g>
      <path class="cls-34" d="m88.57,52.85c-.3,0-.54-.24-.54-.54s.24-.54.54-.54.54.24.54.54-.24.54-.54.54Z"/>
      <g class="cls-40">
        <path class="cls-11" d="m89.02,52.7c-.08.04-.17.06-.26.06-.34,0-.61-.27-.61-.61,0-.18.08-.34.21-.46-.21.1-.35.31-.35.55,0,.34.27.61.61.61.16,0,.3-.06.41-.16Z"/>
      </g>
    </g>
  </g>
  <g>
    <path class="cls-27" d="m75.9,34h30.72l-13.87-16.39-16.87.18c-1.25.01-2.25,1.03-2.25,2.27v11.66c0,1.26,1.02,2.27,2.27,2.27Z"/>
    <g class="cls-17">
      <path class="cls-30" d="m96.59,32.14s2.29.62,2.23,2.66"/>
      <path class="cls-6" d="m81.77,38.93h0c-1.13,0-2.05-.92-2.05-2.05v-8.51c0-1.13.92-2.05,2.05-2.05h0c1.13,0,2.05.92,2.05,2.05v8.51c0,1.13-.92,2.05-2.05,2.05Z"/>
    </g>
  </g>
  <path class="cls-15" d="m101.87,36.39c2.48,0,4.51-1.09,4.51-2.43v-2.53c0-1.33-2.03-2.43-4.51-2.43v7.38Z"/>
  <g>
    <path class="cls-4" d="m100.63,55.32l10.97-.14c1.74,0,3.17-1.43,3.17-3.17h0c0-1.74-1.43-3.17-3.17-3.17l-10.38.09s.83,5.08-.59,6.38Z"/>
    <g class="cls-3">
      <rect class="cls-5" x="77.62" y="53.75" width="59.89" height="2.52"/>
    </g>
  </g>
  <rect class="cls-12" x="22.02" y="7.12" width="43.5" height="26.95"/>
  <rect class="cls-15" x="20.92" y="7.21" width="2.05" height="27.9"/>
  <rect class="cls-15" x="64.41" y="7.1" width="2.05" height="27.9"/>
  <rect class="cls-15" x="20.92" y="6.47" width="45.48" height="2.21"/>
  <rect class="cls-15" x="20.92" y="33.42" width="45.55" height="2.21"/>
  <g>
    <path class="cls-7" d="m65.81,34.48c0,.22-.18.39-.39.39s-.39-.18-.39-.39.18-.39.39-.39.39.18.39.39Z"/>
    <g class="cls-39">
      <path class="cls-8" d="m65.62,34.14c.05.07.08.15.08.24,0,.22-.18.39-.39.39-.07,0-.14-.02-.2-.05.07.09.18.15.31.15.22,0,.39-.18.39-.39,0-.15-.08-.27-.2-.34Z"/>
    </g>
  </g>
  <g>
    <circle class="cls-7" cx="65.33" cy="7.69" r=".39"/>
    <g class="cls-35">
      <path class="cls-8" d="m65.53,7.35c.05.07.08.15.08.24,0,.22-.18.39-.39.39-.07,0-.14-.02-.2-.05.07.09.18.15.31.15.22,0,.39-.18.39-.39,0-.15-.08-.27-.2-.34Z"/>
    </g>
  </g>
  <g>
    <circle class="cls-7" cx="22.15" cy="34.48" r=".39"/>
    <g class="cls-1">
      <path class="cls-8" d="m22.35,34.14c.05.07.08.15.08.24,0,.22-.18.39-.39.39-.07,0-.14-.02-.2-.05.07.09.18.15.31.15.22,0,.39-.18.39-.39,0-.15-.08-.27-.2-.34Z"/>
    </g>
  </g>
  <g>
    <circle class="cls-7" cx="22.07" cy="7.69" r=".39"/>
    <g class="cls-22">
      <path class="cls-8" d="m22.26,7.35c.05.07.08.15.08.24,0,.22-.18.39-.39.39-.07,0-.14-.02-.2-.05.07.09.18.15.31.15.22,0,.39-.18.39-.39,0-.15-.08-.27-.2-.34Z"/>
    </g>
  </g>
</svg>